<svg height="512pt" viewBox="-55 0 512 512" width="512pt" xmlns="http://www.w3.org/2000/svg"><path d="m254.628906 276.390625c0 4.644531-3.765625 8.410156-8.410156 8.410156s-8.410156-3.765625-8.410156-8.410156c0-4.648437 3.765625-8.414063 8.410156-8.414063s8.410156 3.765626 8.410156 8.414063zm0 0"/><path d="m200.601562 0-200.601562 86.058594v175.960937c0 32.175781 10.523438 65.335938 31.28125 98.554688 16.125 25.808593 38.480469 51.765625 66.441406 77.152343 47.117188 42.773438 93.589844 69.054688 95.542969 70.152344l7.335937 4.121094 7.339844-4.121094c1.953125-1.097656 48.425782-27.378906 95.542969-70.152344 27.960937-25.386718 50.316406-51.34375 66.441406-77.152343 20.757813-33.21875 31.28125-66.378907 31.28125-98.554688v-175.960937zm145.65625 262.019531c0 51.789063-43.347656 102.007813-79.707031 135.019531-17.214843 15.628907-36.5625 30.804688-57.503906 45.105469l-8.449219 5.769531-8.453125-5.769531c-14.792969-10.101562-37.035156-26.363281-58.980469-46.464843-35.679687-32.6875-78.214843-82.40625-78.214843-133.660157v-139.742187l145.652343-62.484375 145.65625 62.484375zm0 0"/><path d="m163.398438 276.390625c0 4.644531-3.765626 8.410156-8.410157 8.410156s-8.410156-3.765625-8.410156-8.410156c0-4.648437 3.765625-8.414063 8.410156-8.414063s8.410157 3.765626 8.410157 8.414063zm0 0"/><path d="m84.921875 142.03125v119.988281c0 42.480469 42.910156 88.128907 68.488281 111.558594 16.816406 15.402344 33.878906 28.449219 47.1875 37.921875 12.929688-9.199219 29.464844-21.816406 45.808594-36.652344 26.492188-24.050781 45.804688-47.378906 57.398438-69.328125 8.28125-15.675781 12.480468-30.3125 12.480468-43.5v-119.988281l-115.683594-49.625zm162.382813 15.796875-29.351563 47.253906 20.910156 33.636719c2.382813-.464844 4.839844-.714844 7.355469-.714844 21.164062 0 38.382812 17.21875 38.382812 38.382813 0 21.167969-17.21875 38.382812-38.382812 38.382812s-38.382812-17.21875-38.382812-38.382812c0-7.6875 2.277343-14.847657 6.183593-20.855469l-13.707031-22.050781-13.417969 21.601562c4.085938 6.097657 6.476563 13.429688 6.476563 21.304688 0 21.167969-17.21875 38.382812-38.386719 38.382812-21.164063 0-38.382813-17.21875-38.382813-38.382812 0-21.164063 17.21875-38.382813 38.382813-38.382813 2.339844 0 4.625.222656 6.847656.625l20.828125-33.539062-28.753906-46.257813 25.453125-15.824219 20.941406 33.683594 21.539063-34.675781zm0 0"/></svg>